<?xml version="1.0" encoding="utf-8"?>
<svg width="152px" height="49px" viewBox="0 0 152 49" version="1.1" xmlns:xlink="http://www.w3.org/1999/xlink" xmlns="http://www.w3.org/2000/svg">
  <desc>Created with Lunacy</desc>
  <g id="Giant_Food_logo">
    <g id="g12" transform="matrix(1 2.1456883E-07 2.1456883E-07 -1 3.8159533E-07 47.99998)">
      <g id="g14" transform="translate(0.013056724 0)">
        <path d="M35.8725 0.957286C26.3661 -1.5624 15.8079 0.891871 8.35162 8.32154C0.641361 16.0039 -1.73 26.9912 1.23636 36.707C1.58066 38.203 2.29238 38.3566 2.29238 38.3566C3.14525 38.6992 4.26917 37.4803 4.26917 37.4803L36.7514 5.11481L37.5292 4.33989C37.5292 4.33989 38.6059 3.27146 38.2909 2.56209C38.2909 2.56209 38.0051 1.25498 35.8725 0.957286" transform="translate(0.05234265 0.017790549)" id="path18" fill="#FF0000" fill-rule="evenodd" stroke="none" />
        <path d="M10.7029 0.57957C4.30402 4.27606 0 11.1744 0 19.0747C0 27.2441 4.60197 34.3422 11.3637 37.9364C12.345 38.5496 12.8054 38.2541 12.8054 38.2541C13.4416 37.9845 13.3888 36.741 13.3888 36.741L13.3888 1.50033C13.3888 1.50033 13.391 0.361784 12.8451 0.151571C12.8451 0.151571 11.9957 -0.391981 10.7029 0.57957" transform="translate(25.339315 8.88786)" id="path20" fill="#FFB600" fill-rule="evenodd" stroke="none" />
      </g>
    </g>
  </g>
  <g id="Fruity" fill="#454341" transform="translate(54.92163 2.9999847)">
    <path d="M56.9434 12.5889Q57.458 13.0869 58.1885 13.0869Q58.9355 13.0869 59.4585 12.5723Q59.9814 12.0576 59.9814 11.3271Q59.9814 10.5635 59.4585 10.0571Q58.9355 9.55078 58.1885 9.55078Q57.458 9.55078 56.9434 10.0571Q56.4287 10.5635 56.4287 11.3271Q56.4287 12.0908 56.9434 12.5889ZM5.91016 13.1201L15.207 13.1201L15.207 10.5967L3.12109 10.5967L3.12109 34.4033L5.91016 34.4033L5.91016 23.8613L14.5098 23.8613L14.5098 21.3545L5.91016 21.3545L5.91016 13.1201ZM75.0391 34.2373Q74.0762 34.7686 72.499 34.7686Q68.0332 34.7686 68.0332 29.7881L68.0332 19.7275L65.1113 19.7275L65.1113 17.4033L68.0332 17.4033L68.0332 13.2529L70.7559 12.373L70.7559 17.4033L75.0391 17.4033L75.0391 19.7275L70.7559 19.7275L70.7559 29.3066Q70.7559 31.0166 71.3369 31.7471Q71.918 32.4775 73.2627 32.4775Q74.292 32.4775 75.0391 31.9131L75.0391 34.2373ZM28.2891 19.6113Q29.6338 19.6113 30.3477 20.1592L30.3477 17.3369Q29.7832 17.1045 28.7207 17.1045Q27.2432 17.1045 26.0479 18.1089Q24.8525 19.1133 24.2715 20.9063L24.2051 20.9063L24.2051 17.4033L21.4824 17.4033L21.4824 34.4033L24.2051 34.4033L24.2051 25.7373Q24.2051 22.8984 25.3755 21.2549Q26.5459 19.6113 28.2891 19.6113ZM49.1738 34.4033L46.4512 34.4033L46.4512 31.7139L46.3848 31.7139Q44.6914 34.8018 41.1387 34.8018Q35.0625 34.8018 35.0625 27.5635L35.0625 17.4033L37.7686 17.4033L37.7686 27.1318Q37.7686 32.5107 41.8857 32.5107Q43.8779 32.5107 45.1646 31.0415Q46.4512 29.5723 46.4512 27.1982L46.4512 17.4033L49.1738 17.4033L49.1738 34.4033ZM56.7939 34.4033L59.5166 34.4033L59.5166 17.4033L56.7939 17.4033L56.7939 34.4033ZM86.5107 37.126L94.3301 17.4033L91.5078 17.4033L86.6768 30.5186Q86.4277 31.3818 86.3447 31.7803L86.2451 31.7803Q85.9795 30.7344 85.8965 30.4854L81.2979 17.4033L78.2764 17.4033L84.917 34.3701L83.5557 37.5908Q82.5264 40.0479 80.4678 40.0479Q79.7373 40.0479 78.8574 39.749L78.8574 42.1895Q79.5713 42.4053 80.6338 42.4053Q84.4189 42.4053 86.5107 37.126Z" />
  </g>
</svg>